<svg width="96" height="96" viewBox="0 0 96 96" fill="none" xmlns="http://www.w3.org/2000/svg">
<rect width="96" height="96" rx="24" fill="#F8F8FA"/>
<path fill-rule="evenodd" clip-rule="evenodd" d="M72.975 49.129L69.9779 48.9958C69.9926 48.6659 70 48.3339 70 48C70 47.6661 69.9926 47.3341 69.9779 47.0042L72.975 46.871C72.9916 47.2452 73 47.6216 73 48C73 48.3784 72.9916 48.7548 72.975 49.129ZM70.1972 36.4873L67.5352 37.8707C67.2293 37.282 66.8974 36.7087 66.541 36.1524L69.0673 34.5343C69.4721 35.1664 69.8494 35.818 70.1972 36.4873ZM61.4657 26.9327L59.8476 29.459C59.2913 29.1026 58.718 28.7707 58.1293 28.4648L59.5127 25.8028C60.182 26.1506 60.8336 26.5279 61.4657 26.9327ZM49.129 23.025L48.9958 26.0221C48.6659 26.0074 48.3339 26 48 26C47.6661 26 47.3341 26.0074 47.0042 26.0221L46.871 23.025C47.2452 23.0084 47.6216 23 48 23C48.3784 23 48.7548 23.0084 49.129 23.025ZM36.4873 25.8028L37.8707 28.4648C37.282 28.7707 36.7087 29.1026 36.1524 29.459L34.5343 26.9327C35.1664 26.5279 35.818 26.1506 36.4873 25.8028ZM26.9327 34.5343L29.459 36.1524C29.1026 36.7087 28.7707 37.282 28.4648 37.8707L25.8028 36.4873C26.1506 35.818 26.5279 35.1664 26.9327 34.5343ZM23.025 46.871C23.0084 47.2452 23 47.6216 23 48C23 48.3784 23.0084 48.7548 23.025 49.129L26.0221 48.9958C26.0074 48.6659 26 48.3339 26 48C26 47.6661 26.0074 47.3341 26.0221 47.0042L23.025 46.871ZM32.8945 46.0776C32.8945 37.977 39.4614 31.4102 47.562 31.4102H48.4376C56.5382 31.4102 63.1051 37.977 63.1051 46.0776C63.1051 50.3135 61.312 54.1275 58.4377 56.8076C57.068 58.0848 55.737 59.7546 55.1631 61.8684L53.8908 66.5547H42.1087L40.8364 61.8684C40.2625 59.7545 38.9316 58.0848 37.5618 56.8075C34.6875 54.1274 32.8945 50.3134 32.8945 46.0776ZM42.6517 68.5547L43.3157 71.0003H52.6838L53.3478 68.5547H42.6517ZM47.562 29.4102C38.3568 29.4102 30.8945 36.8724 30.8945 46.0776C30.8945 50.8909 32.9349 55.2277 36.1979 58.2703C37.4229 59.4126 38.4674 60.7759 38.9063 62.3924L41.586 72.2624C41.7042 72.698 42.0996 73.0003 42.551 73.0003H53.4485C53.8999 73.0003 54.2953 72.698 54.4136 72.2624L57.0933 62.3925C57.5321 60.7759 58.5766 59.4127 59.8017 58.2703C63.0647 55.2278 65.1051 50.891 65.1051 46.0776C65.1051 36.8724 57.6428 29.4102 48.4376 29.4102H47.562ZM48 40.977L50 44.4145V45H46V44.4145L48 40.977ZM46 52.7717V47H50V52.7717H46ZM46 54.7717V57H50V54.7717H46ZM52 43.875L48 37L44 43.875V59H52V43.875Z" fill="#1F2E64"/>
</svg>
