<svg width="96" height="96" viewBox="0 0 96 96" fill="none" xmlns="http://www.w3.org/2000/svg">
<rect width="96" height="96" rx="24" fill="#F8F8FA"/>
<path fill-rule="evenodd" clip-rule="evenodd" d="M55.0996 35.5266V31.5782C55.0996 27.9235 52.0775 24.9607 48.3496 24.9607C44.6217 24.9607 41.5996 27.9235 41.5996 31.5782V35.5266C41.5996 39.1814 44.6217 42.1441 48.3496 42.1441C52.0775 42.1441 55.0996 39.1814 55.0996 35.5266ZM48.3496 23C43.5171 23 39.5996 26.8406 39.5996 31.5782V32.272C39.4882 32.2428 39.3712 32.2273 39.2504 32.2273C38.5048 32.2273 37.9004 32.8198 37.9004 33.5508V38.311C37.9004 39.0419 38.5048 39.6344 39.2504 39.6344C39.7164 39.6344 40.1272 39.403 40.3698 39.0509C41.2733 41.014 42.9084 42.584 44.9343 43.4268H42.5996C37.0768 43.4268 32.5996 47.8161 32.5996 53.2305V61.508H31.8611C28.6241 61.508 26 64.0806 26 67.254C26 70.4274 28.6241 73 31.8611 73H53.5984H64.1389C67.3759 73 70 70.4274 70 67.254C70 64.0806 67.3759 61.508 64.1389 61.508H63.3996V53.2305C63.3996 47.8161 58.9225 43.4268 53.3996 43.4268H51.7649C53.7911 42.5839 55.4263 41.0137 56.3297 39.0503C56.5722 39.4027 56.9833 39.6344 57.4496 39.6344C58.1952 39.6344 58.7996 39.0419 58.7996 38.311V33.5508C58.7996 32.8198 58.1952 32.2273 57.4496 32.2273C57.3286 32.2273 57.2112 32.2429 57.0996 32.2722V31.5782C57.0996 26.8406 53.1821 23 48.3496 23ZM64.1389 71.0393H53.5984C51.1554 71.0393 48.9984 69.4753 48.9984 67.1003C48.9984 65.6342 48.1096 64.377 47.0612 63.4688H64.1389C66.2713 63.4688 68 65.1635 68 67.254C68 69.3446 66.2713 71.0393 64.1389 71.0393ZM45.3818 64.6532C44.3578 63.8921 43.1651 63.4688 42.3984 63.4688H31.8611C29.7287 63.4688 28 65.1635 28 67.254C28 69.3446 29.7287 71.0393 31.8611 71.0393H48.6217C47.6394 70.0652 46.9984 68.7419 46.9984 67.1003C46.9984 66.3226 46.4183 65.4237 45.3818 64.6532ZM53.3996 45.3876H42.5996C38.1813 45.3876 34.5996 48.8989 34.5996 53.2305V56.3278C46.0881 56.1273 53.8655 50.1809 57.1666 46.3097C56.0441 45.7212 54.7616 45.3876 53.3996 45.3876ZM58.8025 47.4463C55.2265 51.7016 46.8839 58.0871 34.5996 58.2888V61.2093H61.3996V53.2305C61.3996 50.9407 60.3987 48.8801 58.8025 47.4463Z" fill="#1F2E64"/>
</svg>
