<svg width="96" height="96" viewBox="0 0 96 96" fill="none" xmlns="http://www.w3.org/2000/svg">
<rect width="96" height="96" rx="24" fill="#F8F8FA"/>
<path fill-rule="evenodd" clip-rule="evenodd" d="M25 26H71V52.4865H25V26ZM23 52.5391V24H73V52.5391V54.4865V62.9174H53.8142L55.4493 70.0547H59.1848V72.0006H36.8164V70.0547H40.5511L42.1862 62.9174H23V54.4865V52.5391ZM25 54.5391H71V60.9174H25V54.5391ZM44.2254 62.9727L42.6155 69.9997H53.3849L51.775 62.9727H44.2254ZM47.9816 57.6981C47.9768 57.7094 47.9747 57.7213 47.9747 57.7291C47.9747 57.737 47.9768 57.7489 47.9816 57.7602C47.9858 57.77 47.9903 57.7752 47.9925 57.7773C47.9946 57.7795 47.9968 57.7809 47.9995 57.782L48.001 57.7826L48.0026 57.782C48.0052 57.7809 48.0074 57.7795 48.0096 57.7773C48.0118 57.7752 48.0162 57.77 48.0205 57.7602C48.0253 57.7489 48.0273 57.737 48.0273 57.7291C48.0273 57.7213 48.0253 57.7094 48.0205 57.6981C48.0162 57.6883 48.0118 57.6831 48.0096 57.681C48.0074 57.6788 48.0052 57.6774 48.0026 57.6763L48.001 57.6757L47.9995 57.6763L47.9965 57.6778L47.9948 57.6789L47.9925 57.681C47.9903 57.6831 47.9858 57.6883 47.9816 57.6981ZM48.001 59.6751C49.0911 59.6751 49.9747 58.8039 49.9747 57.7291C49.9747 56.6544 49.0911 55.7832 48.001 55.7832C46.911 55.7832 46.0273 56.6544 46.0273 57.7291C46.0273 58.8039 46.911 59.6751 48.001 59.6751ZM57.787 41.2461H61.7344V39.2461H57.787V41.2461ZM59.9132 48.136L56.4947 46.1901L57.5053 44.4642L60.9238 46.4102L59.9132 48.136ZM56.4947 34.0853L59.9132 32.1394L60.9238 33.8652L57.5053 35.8112L56.4947 34.0853ZM51.3307 43.2627V47.7658L41.5271 43.2781H40.2926V45.8869C40.2926 47.1165 39.2958 48.1133 38.0662 48.1133C36.8366 48.1133 35.8398 47.1165 35.8398 45.8869V42.6348C34.7327 41.9182 34 40.6723 34 39.2553C34 37.0335 35.8011 35.2324 38.0228 35.2324H42.0714L51.3307 30.3418V35.2463C53.3906 35.4216 55.0078 37.1492 55.0078 39.2545C55.0078 41.3598 53.3906 43.0874 51.3307 43.2627ZM49.3307 43.2773V44.6506L42.7461 41.6365V37.1379L49.3307 33.66V35.2317H49.3287L49.3287 43.2773H49.3307ZM51.3307 41.2479C52.2832 41.0839 53.0078 40.2538 53.0078 39.2545C53.0078 38.2552 52.2832 37.4251 51.3307 37.2611V41.2479ZM38.0228 43.2781C37.988 43.2781 37.9532 43.2776 37.9186 43.2768H37.8398V45.8869C37.8398 46.0119 37.9412 46.1133 38.0662 46.1133C38.1912 46.1133 38.2926 46.0119 38.2926 45.8869V43.2781H38.0228ZM40.745 41.2781H40.2926V41.2768H37.949C36.866 41.2379 36 40.3477 36 39.2553C36 38.1381 36.9057 37.2324 38.0228 37.2324H40.745V41.2781Z" fill="#1F2E64"/>
</svg>
