<svg width="96" height="96" viewBox="0 0 96 96" fill="none" xmlns="http://www.w3.org/2000/svg">
<rect width="96" height="96" rx="24" fill="#F8F8FA"/>
<path fill-rule="evenodd" clip-rule="evenodd" d="M67.8856 28.0008H60.7628V68.9983H67.8856V28.0008ZM58.7468 26V69.0005H53.7876V45.3748H42.6328V69.0005H37.6762V55.3748H26.5215V69.0005H23.4219V71.0005H72.9986V69.0005H69.9016V26H58.7468ZM44.6488 47.3755H51.7716V68.9985H44.6488V47.3755ZM35.6603 57.3755H28.5375V68.9987H35.6603V57.3755ZM45.6487 35.7739C46.1218 36.0013 46.6984 36.115 47.3785 36.115C47.8589 36.115 48.2877 36.0563 48.6647 35.939C49.0417 35.8142 49.3558 35.6418 49.6072 35.4218C49.8659 35.2017 50.0618 34.9376 50.1948 34.6294C50.3279 34.3213 50.3944 33.9839 50.3944 33.6171C50.3944 32.9495 50.2022 32.4359 49.8178 32.0764C49.4334 31.7096 48.8421 31.4639 48.0437 31.3392L47.2787 31.2181C46.9534 31.1668 46.7169 31.0824 46.569 30.965C46.4286 30.8476 46.3584 30.6569 46.3584 30.3928C46.3584 30.158 46.4508 29.9746 46.6356 29.8426C46.8204 29.7105 47.1013 29.6445 47.4783 29.6445C47.8774 29.6445 48.2064 29.7142 48.4651 29.8536C48.7312 29.9856 48.9567 30.158 49.1415 30.3708L50.2613 29.2483C49.9435 28.8962 49.5628 28.6284 49.1193 28.445C48.6758 28.2616 48.162 28.1699 47.5781 28.1699C47.1198 28.1699 46.7095 28.2286 46.3473 28.346C45.9925 28.456 45.6894 28.6138 45.4381 28.8192C45.1941 29.0246 45.0056 29.2704 44.8726 29.5565C44.7395 29.8426 44.673 30.158 44.673 30.5028C44.673 31.1484 44.8615 31.6656 45.2385 32.0544C45.6229 32.4433 46.2253 32.689 47.0458 32.7917L47.8109 32.8908C48.1731 32.9421 48.4133 33.0412 48.5316 33.1879C48.6499 33.3273 48.709 33.5033 48.709 33.7161C48.709 33.9949 48.6092 34.2186 48.4097 34.3874C48.2101 34.5561 47.9033 34.6404 47.4894 34.6404C46.7206 34.6404 46.0738 34.347 45.549 33.7601L44.4402 34.8715C44.7728 35.2383 45.1757 35.5391 45.6487 35.7739ZM31.2996 30.811L32.0425 32.3516L34.1603 35.983H36.0009V28.302H34.4153V33.474H34.3821L33.6392 31.9334L31.5214 28.302H29.6808V35.983H31.2663V30.811H31.2996ZM24.6078 35.9059C24.9552 36.0453 25.3507 36.115 25.7942 36.115C26.3264 36.115 26.7995 36.0307 27.2134 35.8619C27.6348 35.6932 27.9748 35.4584 28.2335 35.1577L27.413 34.1453C27.2282 34.336 27.0286 34.5011 26.8143 34.6404C26.5999 34.7725 26.3227 34.8385 25.9827 34.8385C25.5391 34.8385 25.2139 34.7285 25.0069 34.5084C24.7999 34.281 24.6965 33.9765 24.6965 33.595V33.507H28.4331V33.0228C28.4331 32.634 28.3814 32.2635 28.2779 31.9114C28.1818 31.5519 28.0229 31.2365 27.8011 30.965C27.5867 30.6936 27.3058 30.4772 26.9584 30.3158C26.6184 30.1544 26.2081 30.0737 25.7276 30.0737C25.2915 30.0737 24.9034 30.147 24.5634 30.2938C24.2234 30.4331 23.9351 30.6349 23.6985 30.899C23.4694 31.1631 23.2957 31.4822 23.1774 31.8564C23.0591 32.2232 23 32.634 23 33.0888C23 33.551 23.0591 33.9692 23.1774 34.3433C23.3031 34.7175 23.4842 35.0366 23.7207 35.3007C23.9647 35.5575 24.2603 35.7592 24.6078 35.9059ZM24.9737 31.6033C25.1659 31.3832 25.4283 31.2731 25.7609 31.2731C26.0935 31.2731 26.3375 31.3832 26.4927 31.6033C26.6553 31.816 26.7366 32.0985 26.7366 32.4506V32.5496H24.6965V32.4616C24.6965 32.1021 24.7889 31.816 24.9737 31.6033ZM37.7044 35.983V28.302H41.3634C41.7256 28.302 42.0509 28.3643 42.3392 28.489C42.6274 28.6064 42.8714 28.7715 43.071 28.9842C43.2779 29.197 43.4369 29.4574 43.5477 29.7655C43.6586 30.0663 43.7141 30.3965 43.7141 30.7559C43.7141 31.1227 43.6586 31.4565 43.5477 31.7573C43.4369 32.0581 43.2779 32.3149 43.071 32.5276C42.8714 32.7404 42.6274 32.9091 42.3392 33.0338C42.0509 33.1512 41.7256 33.2099 41.3634 33.2099H39.3898V35.983H37.7044ZM39.3898 31.7573H41.1638C41.4152 31.7573 41.611 31.695 41.7515 31.5703C41.8993 31.4382 41.9733 31.2475 41.9733 30.998V30.5138C41.9733 30.2644 41.8993 30.0773 41.7515 29.9526C41.611 29.8206 41.4152 29.7545 41.1638 29.7545H39.3898V31.7573Z" fill="#1F2E64"/>
</svg>
