<svg width="96" height="96" viewBox="0 0 96 96" fill="none" xmlns="http://www.w3.org/2000/svg">
<rect width="96" height="96" rx="24" fill="#F8F8FA"/>
<path fill-rule="evenodd" clip-rule="evenodd" d="M35.9134 46.1758H33.3815C28.7525 46.1758 25 49.9283 25 54.5573C25 59.1862 28.7525 62.9388 33.3815 62.9388H62.6182C67.2471 62.9388 70.9997 59.1862 70.9997 54.5573C70.9997 50.026 67.4032 46.3339 62.9102 46.1807L61.0833 46.1184L60.9814 44.2933C60.63 37.9969 55.4107 32.998 49.0252 32.998H47.9754C41.5918 32.998 36.3736 37.9941 36.0195 44.2881L35.9134 46.1758ZM34.0227 44.1758H33.3815C27.648 44.1758 23 48.8237 23 54.5573C23 60.2908 27.648 64.9388 33.3815 64.9388H62.6182C68.3517 64.9388 72.9997 60.2908 72.9997 54.5573C72.9997 48.9443 68.5451 44.3717 62.9783 44.1819C62.5681 36.8318 56.4779 30.998 49.0252 30.998H47.9754C40.5248 30.998 34.436 36.8285 34.0227 44.1758Z" fill="#1F2E64"/>
<path fill-rule="evenodd" clip-rule="evenodd" d="M37.0705 54.2304L40.6202 58.2301V63.9387H38.6202V58.9896L35.5747 55.558L37.0705 54.2304Z" fill="#1F2E64"/>
<path fill-rule="evenodd" clip-rule="evenodd" d="M59.5503 54.2304L56.0006 58.2301V63.9387H58.0006V58.9896L61.0461 55.558L59.5503 54.2304Z" fill="#1F2E64"/>
<path fill-rule="evenodd" clip-rule="evenodd" d="M42.0003 53.5417V47.9671H40.0003V54.3712L45.0003 59.3623V64.9369H47.0003V58.5328L42.0003 53.5417Z" fill="#1F2E64"/>
<path fill-rule="evenodd" clip-rule="evenodd" d="M54.0003 52.5435V47.9671H56.0003V53.3729L52.0006 57.3658V64.9973H50.0006V56.5364L54.0003 52.5435Z" fill="#1F2E64"/>
<path fill-rule="evenodd" clip-rule="evenodd" d="M35.0003 54.9511C35.556 54.9511 36.0003 54.5024 36.0003 53.9564C36.0003 53.4104 35.556 52.9618 35.0003 52.9618C34.4447 52.9618 34.0003 53.4104 34.0003 53.9564C34.0003 54.5024 34.4447 54.9511 35.0003 54.9511ZM35.0003 56.9511C36.6572 56.9511 38.0003 55.6103 38.0003 53.9564C38.0003 52.3025 36.6572 50.9618 35.0003 50.9618C33.3435 50.9618 32.0003 52.3025 32.0003 53.9564C32.0003 55.6103 33.3435 56.9511 35.0003 56.9511Z" fill="#1F2E64"/>
<path fill-rule="evenodd" clip-rule="evenodd" d="M61.6204 54.9511C61.0648 54.9511 60.6204 54.5024 60.6204 53.9564C60.6204 53.4104 61.0648 52.9618 61.6204 52.9618C62.1761 52.9618 62.6204 53.4104 62.6204 53.9564C62.6204 54.5024 62.1761 54.9511 61.6204 54.9511ZM61.6204 56.9511C59.9636 56.9511 58.6204 55.6103 58.6204 53.9564C58.6204 52.3025 59.9636 50.9618 61.6204 50.9618C63.2773 50.9618 64.6204 52.3025 64.6204 53.9564C64.6204 55.6103 63.2773 56.9511 61.6204 56.9511Z" fill="#1F2E64"/>
<path fill-rule="evenodd" clip-rule="evenodd" d="M41.0003 47.9635C41.556 47.9635 42.0003 47.5149 42.0003 46.9689C42.0003 46.4229 41.556 45.9742 41.0003 45.9742C40.4447 45.9742 40.0003 46.4229 40.0003 46.9689C40.0003 47.5149 40.4447 47.9635 41.0003 47.9635ZM41.0003 49.9635C42.6572 49.9635 44.0003 48.6228 44.0003 46.9689C44.0003 45.315 42.6572 43.9742 41.0003 43.9742C39.3435 43.9742 38.0003 45.315 38.0003 46.9689C38.0003 48.6228 39.3435 49.9635 41.0003 49.9635Z" fill="#1F2E64"/>
<path fill-rule="evenodd" clip-rule="evenodd" d="M55.0003 47.9635C54.4447 47.9635 54.0003 47.5149 54.0003 46.9689C54.0003 46.4229 54.4447 45.9742 55.0003 45.9742C55.556 45.9742 56.0003 46.4229 56.0003 46.9689C56.0003 47.5149 55.556 47.9635 55.0003 47.9635ZM55.0003 49.9635C53.3435 49.9635 52.0003 48.6228 52.0003 46.9689C52.0003 45.315 53.3435 43.9742 55.0003 43.9742C56.6572 43.9742 58.0003 45.315 58.0003 46.9689C58.0003 48.6228 56.6572 49.9635 55.0003 49.9635Z" fill="#1F2E64"/>
<path fill-rule="evenodd" clip-rule="evenodd" d="M48.0003 41.9749C48.556 41.9749 49.0003 41.5263 49.0003 40.9803C49.0003 40.4343 48.556 39.9856 48.0003 39.9856C47.4447 39.9856 47.0003 40.4343 47.0003 40.9803C47.0003 41.5263 47.4447 41.9749 48.0003 41.9749ZM48.0003 43.9749C49.6572 43.9749 51.0003 42.6342 51.0003 40.9803C51.0003 39.3264 49.6572 37.9856 48.0003 37.9856C46.3435 37.9856 45.0003 39.3264 45.0003 40.9803C45.0003 42.6342 46.3435 43.9749 48.0003 43.9749Z" fill="#1F2E64"/>
<path fill-rule="evenodd" clip-rule="evenodd" d="M48.0003 51.9564C48.556 51.9564 49.0003 51.5078 49.0003 50.9618C49.0003 50.4158 48.556 49.9671 48.0003 49.9671C47.4447 49.9671 47.0003 50.4158 47.0003 50.9618C47.0003 51.5078 47.4447 51.9564 48.0003 51.9564ZM48.0003 53.9564C49.6572 53.9564 51.0003 52.6157 51.0003 50.9618C51.0003 49.3079 49.6572 47.9671 48.0003 47.9671C46.3435 47.9671 45.0003 49.3079 45.0003 50.9618C45.0003 52.6157 46.3435 53.9564 48.0003 53.9564Z" fill="#1F2E64"/>
<path fill-rule="evenodd" clip-rule="evenodd" d="M47.0003 49.9635V42.976H49.0003V49.9635H47.0003Z" fill="#1F2E64"/>
</svg>
