<svg width="96" height="96" viewBox="0 0 96 96" fill="none" xmlns="http://www.w3.org/2000/svg">
<rect width="96" height="96" rx="24" fill="#F8F8FA"/>
<path fill-rule="evenodd" clip-rule="evenodd" d="M68.1972 27.7759L65.7959 23L60.9332 27.8355C57.0993 25.3905 52.5397 23.9727 47.6471 23.9727C34.0349 23.9727 23 34.9475 23 48.4856C23 62.0238 34.0349 72.9986 47.6471 72.9986C61.2594 72.9986 72.2943 62.0238 72.2943 48.4856C72.2943 43.4789 70.7851 38.8228 68.1944 34.9427L73 30.1639L68.1972 27.7759ZM66.7692 36.3599L66.3244 36.8023L61.967 35.8394L61.0105 36.7906C63.773 39.9098 65.4487 44.004 65.4487 48.4874C65.4487 58.265 57.4791 66.1912 47.648 66.1912C37.817 66.1912 29.8473 58.265 29.8473 48.4874C29.8473 38.7099 37.817 30.7837 47.648 30.7837C52.2616 30.7837 56.4652 32.5293 59.6276 35.3926L60.539 34.4863L59.0865 29.6719L59.5027 29.258C56.0532 27.1496 51.9929 25.9338 47.6471 25.9338C35.1239 25.9338 24.9718 36.0306 24.9718 48.4856C24.9718 60.9407 35.1239 71.0375 47.6471 71.0375C60.1704 71.0375 70.3225 60.9407 70.3225 48.4856C70.3225 44.0221 69.0187 39.8615 66.7692 36.3599ZM58.2315 36.7809C55.4274 34.2717 51.717 32.7447 47.648 32.7447C38.906 32.7447 31.8191 39.793 31.8191 48.4874C31.8191 57.1819 38.906 64.2302 47.648 64.2302C56.3901 64.2302 63.477 57.1819 63.477 48.4874C63.477 44.5455 62.0202 40.942 59.613 38.1803L56.1537 41.6203C57.6853 43.4942 58.6033 45.8842 58.6033 48.4874C58.6033 54.5043 53.6989 59.382 47.649 59.382C41.5991 59.382 36.6947 54.5043 36.6947 48.4874C36.6947 42.4704 41.5991 37.5927 47.649 37.5927C50.3714 37.5927 52.8619 38.5804 54.7779 40.2152L58.2315 36.7809ZM53.3785 41.6068C51.8235 40.3245 49.8267 39.5538 47.649 39.5538C42.6881 39.5538 38.6664 43.5535 38.6664 48.4874C38.6664 53.4212 42.6881 57.4209 47.649 57.4209C52.6099 57.4209 56.6315 53.4212 56.6315 48.4874C56.6315 46.4259 55.9295 44.5276 54.7502 43.0159L52.2376 45.5145C52.7978 46.369 53.1234 47.3895 53.1234 48.4857C53.1234 51.4942 50.6712 53.933 47.6462 53.933C44.6213 53.933 42.1691 51.4942 42.1691 48.4857C42.1691 45.4773 44.6213 43.0384 47.6462 43.0384C48.8565 43.0384 49.975 43.4288 50.8815 44.0898L53.3785 41.6068ZM49.461 45.5024C48.9316 45.1832 48.3105 44.9995 47.6462 44.9995C45.7103 44.9995 44.1409 46.5603 44.1409 48.4857C44.1409 50.4112 45.7103 51.972 47.6462 51.972C49.5822 51.972 51.1516 50.4112 51.1516 48.4857C51.1516 47.9346 51.023 47.4133 50.794 46.95L48.0673 49.6614L46.673 48.2749L49.461 45.5024ZM65.6954 34.6545L62.4308 33.9331L61.3137 30.2302L65.2557 26.3103L66.7275 29.2375L69.6711 30.7011L65.6954 34.6545Z" fill="#1F2E64"/>
</svg>
