<svg width="96" height="96" viewBox="0 0 96 96" fill="none" xmlns="http://www.w3.org/2000/svg">
<rect width="96" height="96" rx="24" fill="#F8F8FA"/>
<path fill-rule="evenodd" clip-rule="evenodd" d="M65.8577 60L67.9671 64.5246L73.0006 65.115L69.2783 68.5207L70.2625 73.4211L65.8577 70.9816L61.4529 73.4211L62.4371 68.5207L58.7148 65.115L63.7483 64.5246L65.8577 60ZM65.8577 64.3617L64.9822 66.2396L62.9388 66.4793L64.4487 67.8607L64.044 69.876L65.8577 68.8715L67.6714 69.876L67.2667 67.8607L68.7766 66.4793L66.7332 66.2396L65.8577 64.3617Z" fill="#1F2E64"/>
<path fill-rule="evenodd" clip-rule="evenodd" d="M48.0008 57L50.6403 62.735L56.9294 63.4823L52.2788 67.7925L53.5095 74L48.0008 70.9096L42.4921 74L43.7228 67.7925L39.0723 63.4823L45.3614 62.735L48.0008 57ZM48.0008 61.2812L46.557 64.4183L43.1652 64.8214L45.672 67.1447L45.0028 70.5203L48.0008 68.8384L50.9989 70.5203L50.3296 67.1447L52.8364 64.8214L49.4446 64.4183L48.0008 61.2812Z" fill="#1F2E64"/>
<path fill-rule="evenodd" clip-rule="evenodd" d="M30.1429 60L32.2522 64.5246L37.2857 65.115L33.5635 68.5207L34.5476 73.4211L30.1429 70.9816L25.7381 73.4211L26.7222 68.5207L23 65.115L28.0335 64.5246L30.1429 60ZM30.1429 64.3617L29.2674 66.2396L27.224 66.4793L28.7338 67.8607L28.3291 69.876L30.1429 68.8715L31.9566 69.876L31.5519 67.8607L33.0617 66.4793L31.0183 66.2396L30.1429 64.3617Z" fill="#1F2E64"/>
<path fill-rule="evenodd" clip-rule="evenodd" d="M53.8397 35.5245C54.8079 34.8447 55.1072 33.8267 54.9894 32.7482C54.838 31.3629 53.8397 31.0671 53.8397 31.0671C53.8701 30.8257 53.8927 30.592 53.9079 30.3657C54.235 25.4806 51.0824 24.0701 48 24.0701C44.7749 24.0701 41.5925 25.248 42.1604 31.0671C42.1604 31.0671 41.4303 31.2834 41.1241 32.2124L39.0362 32.514C39.1553 31.4236 39.5926 30.6131 40.1104 30.0526C40.0585 27.3469 40.7932 25.2384 42.3536 23.8245C44.0329 22.3029 46.2406 22 48 22C49.8514 22 52.0552 22.433 53.7139 23.9827C55.237 25.4057 55.9949 27.474 55.9113 30.0763C56.4196 30.6358 56.8463 31.4389 56.9639 32.514L56.9639 32.5142C57.1122 33.8715 56.8203 35.3554 55.7804 36.5096C55.4587 39.8703 53.498 42.4292 50.8076 43.4789H55.1786C60.5838 43.4789 64.9657 47.9102 64.9657 53.3765V56.1416H63.0083V53.3765C63.0083 49.1048 59.6633 45.6231 55.4777 45.4641C54.9991 49.2913 51.834 52.2479 48.0006 52.2479C44.1673 52.2479 41.0021 49.2913 40.5235 45.4642C36.3387 45.624 32.9945 49.1053 32.9945 53.3765V56.1416H31.0371V53.3765C31.0371 47.9102 35.4189 43.4789 40.8242 43.4789H45.1924C42.502 42.4292 40.5413 39.8703 40.2197 36.5097C39.1797 35.3555 38.8878 33.8715 39.0361 32.5141L41.1241 32.2125C41.0722 32.3698 41.0325 32.5476 41.0106 32.7482C40.8927 33.8267 41.1922 34.8448 42.1604 35.5245C42.1604 39.3888 44.7749 41.9299 48 41.9299C51.2251 41.9299 53.8397 39.3889 53.8397 35.5245ZM41.1241 32.2125L53.9079 30.3657L41.1241 32.2124C41.1241 32.2124 41.1241 32.2125 41.1241 32.2125ZM48.0006 50.2998C45.2085 50.2998 42.889 48.2083 42.4288 45.4585H53.5724C53.1123 48.2083 50.7928 50.2998 48.0006 50.2998Z" fill="#1F2E64"/>
</svg>
