<?xml version="1.0" encoding="utf-8"?>
<!-- Generator: Adobe Illustrator 25.2.1, SVG Export Plug-In . SVG Version: 6.00 Build 0)  -->
<svg version="1.1" id="Layer_1" xmlns="http://www.w3.org/2000/svg" xmlns:xlink="http://www.w3.org/1999/xlink" x="0px" y="0px"
	 viewBox="0 0 96 96" style="enable-background:new 0 0 96 96;" xml:space="preserve">
<style type="text/css">
	.st0{fill:#F8F8FA;}
	.st1{fill:#1F2E64;}
</style>
<path class="st0" d="M24,0h48c13.3,0,24,10.7,24,24v48c0,13.3-10.7,24-24,24H24C10.7,96,0,85.3,0,72V24C0,10.7,10.7,0,24,0z"/>
<g>
	<path class="st1" d="M22.6,68.1c0-0.4,0.2-0.7,0.2-1.1c0.7-2.3,2.3-3.9,4.8-4.4c0.2,0,0.2,0,0.4-0.2C27,61.2,27,59.8,27,58.4
		c0-0.7,0-1.2,0-2c0-2.1,1.6-3.5,3.5-3.7c1.4,0,3,0,4.4,0c0.7,0,1.1,0.4,1.1,1.1c0,2.1,0,4.1,0,6.2c0,0.9-0.4,1.6-0.7,2.5
		c0.5,0.2,1.1,0.4,1.6,0.5c0.2,0,0.4-0.2,0.4-0.2c1.2-1.6,2.8-2.7,4.8-3.2c0.4-0.2,0.7-0.2,1.2-0.2c-0.4-0.5-0.5-0.9-0.7-1.4
		c-0.2-0.7-0.5-1.2-0.5-2c0-1.8-0.2-3.7,0-5.5c0.2-2.5,2.1-4.1,4.6-4.3c2,0,3.9,0,5.9,0c0.7,0,1.1,0.4,1.1,1.1c0,2.8,0,5.5,0,8.3
		c0,1.1-0.4,2.1-1.1,3c-0.2,0.2-0.2,0.4-0.4,0.5c0.7,0.2,1.6,0.4,2.3,0.7c1.6,0.5,2.8,1.4,3.7,2.8c0.2,0.4,0.4,0.4,0.7,0.2
		c0.5-0.2,0.9-0.4,1.4-0.5c-0.9-1.1-0.9-2.3-0.9-3.7c0-0.7,0-1.4,0-2.1c0-2.1,1.6-3.7,3.7-3.7c1.4,0,2.8,0,4.3,0
		c0.7,0,1.2,0.4,1.2,1.2c0,2,0,3.9,0,5.9c0,0.9-0.4,1.8-0.7,2.5c0.9,0.4,1.8,0.7,2.5,1.2c1.6,1.1,2.5,2.5,2.8,4.3
		c0,0.2,0,0.2,0.2,0.4c0,1.6,0,3.2,0,4.6c-17,0-33.9,0-50.9,0C22.6,71.1,22.6,69.7,22.6,68.1z M38,66.9c0.2,0,0.4,0,0.5,0
		c1.8,0,3.7,0,5.5,0c0.7,0,1.2,0.4,1.2,0.9c0,0.5-0.4,1.1-1.2,1.1c-2,0-3.7,0-5.7,0c-0.2,0-0.4,0-0.5,0c0,0.7,0,1.2,0,2
		c6.7,0,13.5,0,20,0c0-1.2,0-2.3,0-3.4c-0.2-2.8-2.3-5.3-5.1-5.9c-0.4,0-0.5,0-0.7,0.2c-1.1,1.1-2.1,2.1-3.2,3.2
		c-0.7,0.7-1.2,0.7-2,0c-1.1-1.1-2.1-2.1-3.2-3.2c-0.2-0.2-0.4-0.2-0.5-0.2C40.6,61.7,38.3,64.2,38,66.9z M35.9,70.8
		c0.2-2-0.2-3.9,0.5-5.9c-0.4-0.2-0.5-0.2-0.7-0.4c-0.4-0.2-0.7-0.2-1.1,0.2c-0.7,0.7-1.4,1.4-2.1,2.1c-0.7,0.7-1.1,0.7-1.8,0
		c-0.7-0.7-1.4-1.4-2.3-2.3c-0.2-0.2-0.4-0.2-0.5-0.2c-1.1,0.2-2,0.9-2.5,1.6c-1.1,1.4-0.9,3-0.9,4.6C28.2,70.8,32,70.8,35.9,70.8z
		 M60,70.8c3.7,0,7.6,0,11.4,0c0-0.9,0-1.8,0-2.5c-0.2-1.8-1.6-3.2-3.4-3.7c-0.4,0-0.5,0-0.7,0.2c-0.7,0.7-1.4,1.4-2.3,2.3
		c-0.5,0.5-1.1,0.5-1.8,0c-0.7-0.7-1.2-1.2-2-2c-0.7-0.7-0.7-0.7-1.8-0.4c-0.2,0-0.2,0-0.4,0.2C60.1,66.7,60,68.8,60,70.8z
		 M51.8,53.7c-2.7,0.7-5.3,0.2-7.8,0.4c0,0.7,0,1.2,0.2,2c0.2,1.8,1.8,3.2,3.7,3.2c1.8,0.2,3.4-0.9,3.7-2.7
		C51.8,55.7,51.8,54.8,51.8,53.7z M44,52.2c2.1,0,4.1,0,6.2,0c0.7,0,1.4-0.7,1.6-1.4c0-0.7,0-1.6,0-2.3c-1.8,0-3.5,0-5.1,0
		c-0.7,0-1.2,0.4-1.8,0.9C44,50,44,51.1,44,52.2z M29.1,59.1c-0.2,1.2,0.2,2.3,1.2,3c0.9,0.5,2,0.5,2.8,0c1.1-0.7,1.2-1.8,1.2-2.8
		C32.5,59.1,30.7,59.1,29.1,59.1z M61.6,59.1c-0.2,1.2,0.2,2.3,1.2,3c0.9,0.5,2,0.5,2.8-0.2c1.1-0.7,1.2-1.8,1.1-2.8
		C65.1,59.1,63.3,59.1,61.6,59.1z M34.3,54.8c-1.1,0-2.1,0-3.2,0c-0.2,0-0.2,0-0.4,0c-1.1,0.2-1.8,1.1-1.4,2.3c1.2,0,2.7,0,3.9,0
		c0.7,0,1.1-0.4,1.1-1.1C34.3,55.5,34.3,55.2,34.3,54.8z M66.7,54.8c-0.2,0-0.4,0-0.5,0c-1.1,0-2.1,0-3.2,0c-1.1,0-1.8,1.1-1.6,2.3
		c1.4,0,2.7,0,4.1,0c0.7,0,1.1-0.4,1.1-1.1C66.9,55.7,66.7,55.2,66.7,54.8z M49.5,61.4c-1.1,0-2.1,0-3.2,0c0.5,0.5,1.1,1.1,1.6,1.6
		C48.4,62.4,49,61.9,49.5,61.4z M32.1,64.4c-0.4,0-0.7,0-1.1,0c0.2,0.2,0.4,0.4,0.4,0.5C31.8,64.7,32,64.6,32.1,64.4z M64,64.9
		c0.2-0.2,0.4-0.4,0.5-0.5c-0.4,0-0.7,0-1.1,0C63.9,64.6,64,64.7,64,64.9z"/>
	<path class="st1" d="M57.8,31.9c-0.2,7.4-7.8,12.2-14.5,8.9c-3.5-1.8-5.5-5-5.3-8.9c0-4.1,2.1-7.1,5.7-8.9c0.5-0.4,1.1-0.2,1.2,0.2
		c0.4,0.4,0.4,0.9,0,1.2c-0.2,0.2-0.5,0.4-0.7,0.5c-1.6,0.7-2.7,2-3.4,3.4c-2.5,4.6,0.5,10.8,5.9,11.5c4.3,0.5,8-2,9-6
		c0.9-3.4-0.9-7.1-3.9-8.7c-0.2-0.2-0.5-0.2-0.7-0.4c-0.5-0.4-0.7-0.9-0.4-1.2c0.2-0.7,0.7-1.1,1.2-0.7c0.9,0.5,1.6,0.9,2.3,1.4
		C56.6,26.3,57.8,29.1,57.8,31.9z"/>
	<path class="st1" d="M46.5,33.4c1.4-1.4,2.7-2.7,4.1-4.1c0.2-0.2,0.5-0.5,0.7-0.7c0.5-0.5,1.1-0.5,1.4-0.2c0.5,0.5,0.5,1.1,0,1.6
		c-0.9,1.1-2,2-3,3c-0.7,0.7-1.6,1.6-2.3,2.3c-0.5,0.5-1.1,0.5-1.6,0c-0.9-0.9-1.8-1.8-2.5-2.5c-0.7-0.5-0.7-1.2-0.4-1.6
		c0.4-0.4,1.1-0.4,1.6,0.2C45.3,31.9,45.8,32.6,46.5,33.4z"/>
	<path class="st1" d="M49,22.9c0,0.5-0.5,1.1-1.1,1.1c-0.5,0-1.1-0.5-1.1-1.1s0.5-0.9,0.9-1.1C48.4,22,49,22.4,49,22.9z"/>
	<path class="st1" d="M47.9,68.8c-0.5,0-1.1-0.5-1.1-1.1c0-0.5,0.5-1.1,1.1-1.1s1.1,0.5,1.1,1.1S48.4,68.8,47.9,68.8z"/>
</g>
</svg>
