<svg width="96" height="96" viewBox="0 0 96 96" fill="none" xmlns="http://www.w3.org/2000/svg">
<rect width="96" height="96" rx="24" fill="#F8F8FA"/>
<path d="M51.8394 26.8188C54.3768 27.3501 56.7355 28.3664 58.8141 29.7649L61.5473 27.0266L66.9735 32.4627L64.2416 35.1995C65.6402 37.2836 66.6557 39.6485 67.186 42.1918H71V49.8713H65.6249V47.9752H69.0992V44.0878H65.5731C65.1605 40.6755 63.7936 37.5578 61.7479 35.0106L64.2911 32.4627L61.5473 29.7139L59.0046 32.2613C56.4609 30.2096 53.347 28.8387 49.9386 28.4251V24.896H46.0583V28.3733C42.5822 28.7004 39.3944 30.0208 36.7806 32.0482L34.4514 29.7147L31.7076 32.4635L33.9852 34.7453C31.819 37.34 30.3698 40.5561 29.9427 44.0878H26.9008V47.9752H29.8909V49.8712H25V42.1918H28.3299C28.8846 39.5311 29.9704 37.0658 31.4702 34.913L29.0252 32.4635L34.4514 27.0275L36.9923 29.5731C39.1318 28.1874 41.5558 27.2019 44.1575 26.7242V23H51.8394V26.8188Z" fill="#1F2E64"/>
<path d="M57.541 45.0739C57.541 39.7846 53.2615 35.5113 48.0004 35.5113C42.7394 35.5113 38.4599 39.7846 38.4599 45.0739H36.5004C36.5004 38.7136 41.6492 33.5576 48.0004 33.5576C54.3517 33.5576 59.5004 38.7136 59.5004 45.0739H57.541Z" fill="#1F2E64"/>
<path fill-rule="evenodd" clip-rule="evenodd" d="M53.0264 53.1632C53.8591 52.6118 54.1166 51.786 54.0152 50.9113C53.885 49.7876 53.0264 49.5477 53.0264 49.5477C53.0525 49.3519 53.072 49.1623 53.085 48.9788C53.3664 45.0163 50.6549 43.8723 48.0039 43.8723C45.2301 43.8723 42.493 44.8277 42.9814 49.5477C42.9814 49.5477 42.3535 49.7232 42.0901 50.4767L40.2944 50.7213C40.3506 50.2365 40.4889 49.8199 40.6759 49.4675C40.2223 49.3233 39.4774 49.1757 38.3281 49.1757C37.1887 49.1757 36.1053 49.483 35.3779 50.1536C34.6848 50.7927 34.1905 51.8773 34.4332 53.7298L34.4985 54.2282L34.0783 54.4874L34.0713 54.4922C34.0605 54.4998 34.0405 54.5143 34.0144 54.5357C33.9612 54.579 33.8877 54.6461 33.8147 54.7348C33.6684 54.9122 33.5441 55.1485 33.5441 55.4518C33.5441 55.8597 33.643 56.1511 33.7908 56.3841C33.945 56.6273 34.1784 56.8472 34.5034 57.0668L34.8448 57.2974V57.7101C34.8448 58.7491 35.1057 59.5338 35.5023 60.0404C35.8828 60.5267 36.4292 60.9581 37.167 60.9581C38.563 59.5878 40.4744 58.743 42.5826 58.743H43.9659C42.5121 57.6717 41.5189 55.9984 41.3123 53.9623C40.4178 53.0261 40.1668 51.8223 40.2944 50.7213L42.0901 50.4767C42.0455 50.6043 42.0114 50.7486 41.9925 50.9113C41.8911 51.786 42.1487 52.6119 42.9814 53.1632C42.9814 56.2976 45.2301 58.3587 48.0039 58.3587C50.7777 58.3587 53.0264 56.2977 53.0264 53.1632ZM52.0419 58.743H53.9355C55.9575 58.743 57.7984 59.5201 59.1772 60.7925C59.7485 60.7182 60.1868 60.4501 60.5074 60.0404C60.904 59.5338 61.1649 58.7491 61.1649 57.7101V57.2974L61.5063 57.0668C61.8313 56.8472 62.0647 56.6273 62.2189 56.3841C62.3667 56.1511 62.4656 55.8597 62.4656 55.4518C62.4656 55.1485 62.3413 54.9122 62.195 54.7348C62.1219 54.6461 62.0485 54.579 61.9953 54.5357C61.9692 54.5143 61.9492 54.4998 61.9384 54.4922L61.9314 54.4874L61.5112 54.2282L61.5765 53.7298C61.8192 51.8773 61.3249 50.7927 60.6318 50.1536C59.9044 49.483 58.821 49.1757 57.6816 49.1757C56.5309 49.1757 55.7855 49.3237 55.3321 49.468C55.5189 49.8203 55.6572 50.2367 55.7134 50.7213C55.8409 51.8223 55.5899 53.026 54.6955 53.9622C54.4888 55.9984 53.4956 57.6717 52.0419 58.743ZM54.8031 48.0087C55.4342 47.7996 56.3582 47.624 57.6816 47.624C59.0546 47.624 60.5703 47.9886 61.6798 49.0116C62.7482 49.9966 63.3251 51.4843 63.1581 53.4971C63.2315 53.5681 63.31 53.6511 63.3885 53.7465C63.6902 54.1124 64.0137 54.6866 64.0137 55.4518C64.0137 56.1385 63.8394 56.7215 63.5254 57.2166C63.2978 57.5754 63.0103 57.8669 62.7022 58.1118C62.6415 59.2309 62.3227 60.2351 61.7255 60.9982C61.5129 61.2699 61.2695 61.5048 60.9991 61.6995C65.0427 62.3627 68.1284 65.8809 68.1284 70.1215V72.9002H27.8771V70.1215C27.8771 65.8797 30.9646 62.3607 35.0099 61.6989C34.7397 61.5043 34.4966 61.2696 34.2842 60.9982C33.687 60.2351 33.3682 59.2309 33.3075 58.1118C32.9994 57.8669 32.7119 57.5754 32.4843 57.2166C32.1703 56.7215 31.996 56.1385 31.996 55.4518C31.996 54.6866 32.3195 54.1124 32.6212 53.7465C32.6997 53.6511 32.7782 53.5681 32.8516 53.4971C32.6846 51.4843 33.2615 49.9966 34.3298 49.0116C35.4394 47.9886 36.9551 47.624 38.3281 47.624C39.6668 47.624 40.5967 47.8037 41.2283 48.016C41.3218 46.1595 41.9537 44.6933 43.1476 43.6731C44.5919 42.4389 46.4907 42.1932 48.0039 42.1932C49.5962 42.1932 51.4916 42.5444 52.9182 43.8014C54.0722 44.8182 54.7155 46.2412 54.8031 48.0087ZM60.9758 63.2722C61.4254 64.2555 61.6761 65.3492 61.6761 66.5016V71.3485H66.5803V70.1215C66.5803 66.7323 64.1712 63.907 60.9758 63.2722ZM35.5827 63.1854C32.1164 63.5872 29.4253 66.5394 29.4253 70.1215V71.3485H34.842V66.5016C34.842 65.3151 35.1077 64.1909 35.5827 63.1854ZM48.0033 63.9167C45.7925 63.9167 43.9426 62.3684 43.4737 60.2947H52.5328C52.064 62.3684 50.214 63.9167 48.0033 63.9167ZM60.128 66.5016C60.128 63.1321 57.4493 60.3897 54.1099 60.2971C53.6181 63.2321 51.0713 65.4684 48.0033 65.4684C44.9474 65.4684 42.4085 63.2497 41.9025 60.3317C38.8025 60.6712 36.3902 63.304 36.3902 66.5016V71.3492H60.128V66.5016Z" fill="#1F2E64"/>
<path fill-rule="evenodd" clip-rule="evenodd" d="M40.2944 50.7213C40.2964 50.7041 40.2984 50.6871 40.3006 50.6701C40.3552 50.2474 40.4726 49.8775 40.6298 49.5576C40.6448 49.5271 40.6602 49.4971 40.6759 49.4675C40.6448 49.4576 40.6124 49.4477 40.5785 49.4379C40.1184 49.3038 39.3986 49.1757 38.3281 49.1757C37.1887 49.1757 36.1053 49.483 35.3779 50.1536C34.6848 50.7927 34.1905 51.8773 34.4332 53.7298L34.4985 54.2282L34.0783 54.4874L34.0713 54.4922C34.0605 54.4998 34.0405 54.5143 34.0144 54.5357C33.9612 54.579 33.8877 54.6461 33.8147 54.7348C33.6684 54.9122 33.5441 55.1485 33.5441 55.4518C33.5441 55.8597 33.643 56.1511 33.7908 56.3841C33.945 56.6273 34.1784 56.8472 34.5034 57.0668L34.8448 57.2974V57.7101C34.8448 58.7491 35.1057 59.5338 35.5023 60.0404C35.8828 60.5267 36.4292 60.9581 37.167 60.9581C38.563 59.5878 40.4744 58.743 42.5826 58.743H43.9659C43.9215 58.7103 43.8776 58.677 43.8341 58.6432C42.4522 57.5692 41.5126 55.9362 41.3123 53.9623C40.4178 53.0261 40.1668 51.8223 40.2944 50.7213ZM41.2163 54.0062C40.3162 53.0476 40.0659 51.8236 40.195 50.7098C40.247 50.261 40.3679 49.868 40.5328 49.5286C40.0823 49.3994 39.3769 49.2755 38.3281 49.2755C37.2039 49.2755 36.1485 49.579 35.4458 50.2269C34.7816 50.8393 34.2928 51.8889 34.5324 53.7169L34.6061 54.2792L34.133 54.571L34.1288 54.5738C34.1198 54.5802 34.1018 54.5933 34.0776 54.613C34.0285 54.6531 33.96 54.7156 33.8919 54.7982C33.7558 54.9633 33.6441 55.178 33.6441 55.4518C33.6441 55.8418 33.7382 56.1145 33.8753 56.3307C34.0196 56.5583 34.2412 56.7691 34.5595 56.9841L34.9448 57.2445V57.7101C34.9448 58.7336 35.2019 59.4946 35.5811 59.979C35.9449 60.444 36.4525 60.8425 37.1267 60.8578C38.5379 59.4871 40.462 58.6432 42.5826 58.6432H43.6733C42.3317 57.5582 41.4216 55.9441 41.2163 54.0062ZM42.9814 53.1632C42.1487 52.6119 41.8911 51.786 41.9925 50.9113C42.0088 50.7706 42.0366 50.6437 42.0726 50.5294C42.0783 50.5115 42.0841 50.4939 42.0901 50.4767C42.3535 49.7232 42.9814 49.5477 42.9814 49.5477C42.493 44.8277 45.2301 43.8723 48.0039 43.8723C50.6549 43.8723 53.3664 45.0163 53.085 48.9788C53.072 49.1623 53.0525 49.3519 53.0264 49.5477C53.0264 49.5477 53.885 49.7876 54.0152 50.9113C54.1166 51.786 53.8591 52.6118 53.0264 53.1632C53.0264 56.2977 50.7777 58.3587 48.0039 58.3587C45.2301 58.3587 42.9814 56.2976 42.9814 53.1632ZM52.9993 49.6437L52.9157 49.6204L52.9272 49.5345C52.9532 49.3406 52.9724 49.1531 52.9853 48.9717C53.1241 47.0162 52.525 45.7742 51.5815 45.0174C50.6323 44.2561 49.3179 43.9721 48.0039 43.9721C46.6241 43.9721 45.2766 44.2106 44.3343 45.0158C43.398 45.8159 42.8386 47.1967 43.0809 49.5374L43.0895 49.6211L43.0087 49.6437L43.0044 49.645C43.0008 49.6461 42.9951 49.648 42.9874 49.6507C42.972 49.6562 42.949 49.665 42.9201 49.6779C42.8624 49.7038 42.7819 49.7459 42.6934 49.8103C42.517 49.9385 42.3084 50.1551 42.1846 50.5095C42.1425 50.63 42.1099 50.7671 42.0919 50.9228C41.9938 51.7684 42.2417 52.5537 43.0367 53.08L43.0814 53.1096V53.1632C43.0814 56.2425 45.2853 58.2589 48.0039 58.2589C50.7225 58.2589 52.9264 56.2426 52.9264 53.1632V53.1096L52.9711 53.08C53.7661 52.5536 54.0138 51.7684 53.9159 50.9228C53.8539 50.3877 53.6201 50.069 53.4063 49.8834C53.2986 49.79 53.195 49.7294 53.1188 49.6925C53.0808 49.674 53.0498 49.6615 53.0288 49.6538C53.0184 49.6499 53.0104 49.6473 53.0054 49.6456L52.9993 49.6437ZM61.0648 57.2445L61.4502 56.9841C61.7685 56.7691 61.99 56.5583 62.1344 56.3307C62.2715 56.1145 62.3656 55.8418 62.3656 55.4518C62.3656 55.178 62.2539 54.9633 62.1178 54.7982C62.0497 54.7156 61.9812 54.6531 61.9321 54.613C61.9084 54.5936 61.8905 54.5806 61.8813 54.5741C61.8811 54.574 61.8815 54.5742 61.8813 54.5741L61.8768 54.571L61.4036 54.2792L61.4773 53.7169C61.7169 51.8889 61.2281 50.8393 60.5639 50.2269C59.8612 49.579 58.8058 49.2755 57.6816 49.2755C56.6315 49.2755 55.9256 49.3997 55.4752 49.529C55.6399 49.8684 55.7607 50.2612 55.8127 50.7098L55.7134 50.7213C55.6619 50.2774 55.5416 49.8907 55.3782 49.5582C55.3632 49.5277 55.3478 49.4976 55.3321 49.468C55.3632 49.4581 55.3956 49.4482 55.4295 49.4384C55.8896 49.3041 56.6098 49.1757 57.6816 49.1757C58.821 49.1757 59.9044 49.483 60.6318 50.1536C61.3249 50.7927 61.8192 51.8773 61.5765 53.7298L61.5112 54.2282L61.9314 54.4874L61.9384 54.4922C61.9492 54.4998 61.9692 54.5143 61.9953 54.5357C62.0485 54.579 62.1219 54.6461 62.195 54.7348C62.3413 54.9122 62.4656 55.1485 62.4656 55.4518C62.4656 55.8597 62.3667 56.1511 62.2189 56.3841C62.0647 56.6273 61.8313 56.8472 61.5063 57.0668L61.1649 57.2974V57.7101C61.1649 58.7491 60.904 59.5338 60.5074 60.0404C60.1868 60.4501 59.7485 60.7182 59.1772 60.7925C57.7984 59.5201 55.9575 58.743 53.9355 58.743H52.0419C52.0862 58.7103 52.1302 58.677 52.1737 58.6432C53.5556 57.5692 54.4952 55.9362 54.6955 53.9622C55.5899 53.026 55.8409 51.8223 55.7134 50.7213L55.8127 50.7098C55.9417 51.8236 55.6916 53.0475 54.7915 54.0062C54.5862 55.9441 53.676 57.5582 52.3345 58.6432H53.9355C55.9666 58.6432 57.8175 59.4174 59.21 60.6871C59.7321 60.6083 60.1323 60.3576 60.4286 59.979C60.8078 59.4946 61.0648 58.7336 61.0648 57.7101V57.2445ZM68.1284 72.9002H27.8771V70.1215C27.8771 65.9274 30.8955 62.4399 34.8738 61.7224C34.919 61.7142 34.9644 61.7064 35.0099 61.6989C34.9727 61.6722 34.936 61.6446 34.8999 61.6163C34.6734 61.439 34.4674 61.2322 34.2842 60.9982C33.687 60.2351 33.3682 59.2309 33.3075 58.1118C32.9994 57.8669 32.7119 57.5754 32.4843 57.2166C32.1703 56.7215 31.996 56.1385 31.996 55.4518C31.996 54.6866 32.3195 54.1124 32.6212 53.7465C32.6997 53.6511 32.7782 53.5681 32.8516 53.4971C32.6846 51.4843 33.2615 49.9966 34.3298 49.0116C35.4394 47.9886 36.9551 47.624 38.3281 47.624C39.5988 47.624 40.5013 47.7859 41.1298 47.9839C41.1634 47.9945 41.1962 48.0052 41.2283 48.016C41.23 47.9814 41.2319 47.947 41.234 47.9127C41.3455 46.105 41.9759 44.6743 43.1476 43.6731C44.5919 42.4389 46.4907 42.1932 48.0039 42.1932C49.5962 42.1932 51.4916 42.5444 52.9182 43.8014C54.0497 44.7983 54.6902 46.1858 54.7974 47.9055C54.7995 47.9398 54.8014 47.9742 54.8031 48.0087C54.8352 47.9981 54.868 47.9876 54.9017 47.9771C55.5292 47.7822 56.4254 47.624 57.6816 47.624C59.0546 47.624 60.5703 47.9886 61.6798 49.0116C62.7482 49.9966 63.3251 51.4843 63.1581 53.4971C63.2315 53.5681 63.31 53.6511 63.3885 53.7465C63.6902 54.1124 64.0137 54.6866 64.0137 55.4518C64.0137 56.1385 63.8394 56.7215 63.5254 57.2166C63.2978 57.5754 63.0103 57.8669 62.7022 58.1118C62.6415 59.2309 62.3227 60.2351 61.7255 60.9982C61.5421 61.2325 61.3358 61.4395 61.109 61.6169C61.0729 61.6452 61.0362 61.6727 60.9991 61.6995C61.0445 61.707 61.0899 61.7148 61.1351 61.723C65.1117 62.4419 68.1284 65.9286 68.1284 70.1215V72.9002ZM61.2389 61.6408C65.22 62.4026 68.2284 65.9101 68.2284 70.1215V73L27.7771 73V70.1215C27.7771 65.9089 30.7873 62.4006 34.77 61.6401C34.5637 61.4703 34.3749 61.2762 34.2054 61.0596C33.6006 60.2869 33.2777 59.278 33.2102 58.1618C32.9087 57.9175 32.626 57.6266 32.3998 57.27C32.0751 56.758 31.896 56.1563 31.896 55.4518C31.896 54.657 32.2323 54.0611 32.5439 53.6831C32.6132 53.5991 32.6823 53.5243 32.7482 53.4587C32.5918 51.4448 33.1752 49.9403 34.262 48.9383C35.3963 47.8925 36.9399 47.5242 38.3281 47.5242C39.5913 47.5242 40.4973 47.6832 41.1358 47.8812C41.2529 46.0648 41.8915 44.6151 43.0826 43.5973C44.5546 42.3394 46.4836 42.0934 48.0039 42.0934C49.6078 42.0934 51.5318 42.4467 52.9844 43.7265C54.133 44.7386 54.7824 46.1436 54.8956 47.8745C55.5329 47.6796 56.4326 47.5242 57.6816 47.5242C59.0698 47.5242 60.6134 47.8925 61.7477 48.9383C62.8345 49.9403 63.4179 51.4448 63.2615 53.4587C63.3274 53.5243 63.3965 53.5991 63.4658 53.6831C63.7774 54.0611 64.1137 54.657 64.1137 55.4518C64.1137 56.1563 63.9345 56.758 63.6099 57.27C63.3837 57.6266 63.1009 57.9175 62.7995 58.1618C62.732 59.278 62.4091 60.2869 61.8043 61.0596C61.6346 61.2765 61.4455 61.4708 61.2389 61.6408ZM61.1463 63.4107C61.5517 64.3595 61.7761 65.4044 61.7761 66.5016V71.2487H66.4803V70.1215C66.4803 66.8481 64.2006 64.1086 61.1463 63.4107ZM61.026 63.3843C61.444 64.3383 61.6761 65.3928 61.6761 66.5016V71.3485H66.5803V70.1215C66.5803 66.7752 64.2318 63.9787 61.0968 63.2974C61.0566 63.2887 61.0162 63.2803 60.9758 63.2722C60.9928 63.3094 61.0095 63.3468 61.026 63.3843ZM35.4168 63.3075C32.0867 63.7819 29.5253 66.6517 29.5253 70.1215V71.2487H34.742V66.5016C34.742 65.3645 34.9831 64.2835 35.4168 63.3075ZM35.4655 63.2C32.0559 63.654 29.4253 66.5798 29.4253 70.1215V71.3485H34.842V66.5016C34.842 65.3568 35.0894 64.27 35.5334 63.2919C35.5496 63.2562 35.566 63.2207 35.5827 63.1854C35.5436 63.1899 35.5045 63.1948 35.4655 63.2ZM43.6006 60.3945C44.1031 62.3625 45.8841 63.8169 48.0033 63.8169C50.1225 63.8169 51.9035 62.3625 52.406 60.3945H43.6006ZM43.4975 60.3945C43.4892 60.3614 43.4813 60.3281 43.4737 60.2947H52.5328C52.5253 60.3281 52.5174 60.3614 52.5091 60.3945C52.0043 62.4179 50.1784 63.9167 48.0033 63.9167C45.8282 63.9167 44.0023 62.4179 43.4975 60.3945ZM54.1935 60.3999C57.4382 60.5354 60.028 63.215 60.028 66.5016V71.2494H36.4902V66.5016C36.4902 63.3871 38.816 60.8175 41.8208 60.4418C42.3722 63.3605 44.9302 65.5682 48.0033 65.5682C51.0911 65.5682 53.6588 63.3393 54.1935 60.3999ZM41.9025 60.3317C42.4085 63.2497 44.9474 65.4684 48.0033 65.4684C51.0713 65.4684 53.6181 63.2321 54.1099 60.2971C57.4493 60.3897 60.128 63.1321 60.128 66.5016V71.3492H36.3902V66.5016C36.3902 63.304 38.8025 60.6712 41.9025 60.3317Z" fill="#1F2E64"/>
</svg>
